<svg width="14" height="15" viewBox="0 0 14 15" fill="none" xmlns="http://www.w3.org/2000/svg">
<g clip-path="url(#clip0_0_596)">
<path d="M7.00232 3.64917C5.01724 3.64917 3.41016 5.37292 3.41016 7.49792C3.41016 9.6248 5.01899 11.3467 7.00232 11.3467C8.98741 11.3467 10.5945 9.62292 10.5945 7.49792C10.5945 5.37105 8.98566 3.64917 7.00232 3.64917ZM7.00232 9.99605C5.71374 9.99605 4.67074 8.87792 4.67074 7.49792C4.67074 6.11792 5.71432 4.9998 7.00232 4.9998C8.29032 4.9998 9.33391 6.11792 9.33391 7.49792C9.33449 8.87792 8.29091 9.99605 7.00232 9.99605Z" fill="#0E4243"/>
<path d="M9.88598 0.0476049C8.59798 -0.0167701 5.40773 -0.0136451 4.11856 0.0476049C2.98573 0.10448 1.98648 0.397605 1.18089 1.26073C-0.165439 2.70323 0.00664429 4.64698 0.00664429 7.49761C0.00664429 10.4151 -0.145022 12.3139 1.18089 13.7345C2.53248 15.182 4.37289 14.9926 7.00198 14.9926C9.69931 14.9926 10.6303 14.9945 11.5841 14.5989C12.8808 14.0595 13.8596 12.8176 13.9553 10.587C14.016 9.20635 14.0125 5.78886 13.9553 4.40761C13.8398 1.77448 12.5209 0.177605 9.88598 0.0476049V0.0476049ZM11.9247 12.7801C11.0421 13.7257 9.81773 13.6414 6.98506 13.6414C4.06839 13.6414 2.89881 13.6876 2.04539 12.7707C1.06248 11.7226 1.24039 10.0395 1.24039 7.48761C1.24039 4.03448 0.909644 1.5476 4.14423 1.3701C4.88739 1.34198 5.10614 1.3326 6.97689 1.3326L7.00314 1.35135C10.1117 1.35135 12.5506 1.0026 12.6971 4.46761C12.7303 5.25823 12.7379 5.49573 12.7379 7.49698C12.7373 10.5857 12.7921 11.8464 11.9247 12.7801V12.7801Z" fill="#0E4243"/>
<path d="M10.7369 4.39592C11.2005 4.39592 11.5763 3.99325 11.5763 3.49654C11.5763 2.99983 11.2005 2.59717 10.7369 2.59717C10.2733 2.59717 9.89746 2.99983 9.89746 3.49654C9.89746 3.99325 10.2733 4.39592 10.7369 4.39592Z" fill="#0E4243"/>
</g>
<defs>
<clipPath id="clip0_0_596">
<rect width="14" height="15" fill="white"/>
</clipPath>
</defs>
</svg>
